# xmcd
#
# Track frame offsets: 
#        150
#        16370
#        33357
#        46868
#        62777
#        81368
#        102890
#        115231
#        130598
#        146715
#        158721
#        173207
#        188606
#        207507
#        220171
#        238621
#        254154
#        268120
#        284306
#        299956
#
# Disc length: 4299 seconds
#
# Revision: 2
# Processed by: cddbd v1.5.2PL0 Copyright (c) Steve Scherf et al.
# Submitted via: ExactAudioCopy v0.99pb5
#
DISCID=3510c914
DTITLE=Various Artist - 100 Hits - 70s Heart Throbs - 100 Ultimate Teen Idols
DTITLE=Various Artist - CD 3
DYEAR=2016
DGENRE=Pop
TTITLE0=Heatwave - Boogie nights
TTITLE1=Trammps - Hold back the night
TTITLE2=Billy Ocean - Love really hurts without you
TTITLE3=Drifters - Kissin' in the back row of the movies
TTITLE4=Bill Withers - Lovely day
TTITLE5=Billy Paul - Me and Mrs. Jones
TTITLE6=Johnny Nash - I can see clearly now
TTITLE7=Average White Band - Let's go round again
TTITLE8=Imperials - Who's gonna love me
TTITLE9=Chairmen Of The Board - Give me just a little more time
TTITLE10=Barry Blue - Dancin' (on a Saturday night)
TTITLE11=Roy Head - Let a woman be a woman
TTITLE12=Leo Sayer - Moonlighting
TTITLE13=Ronnie Dyson - When you get right down to it
TTITLE14=Mick Jackson - Blame it on the boogie
TTITLE15=Tymes - Ms. Grace
TTITLE16=Johnny Johnson and The Bandwagon - Sweet inspiration
TTITLE17=McFadden and Whitehead - Ain't no stoppin' us now
TTITLE18=Dan Hartman - Instant replay
TTITLE19=Wild Cherry - Play that funky music
EXTD=
EXTT0=
EXTT1=
EXTT2=
EXTT3=
EXTT4=
EXTT5=
EXTT6=
EXTT7=
EXTT8=
EXTT9=
EXTT10=
EXTT11=
EXTT12=
EXTT13=
EXTT14=
EXTT15=
EXTT16=
EXTT17=
EXTT18=
EXTT19=
PLAYORDER=
